<?xml version="1.0" encoding="UTF-8"?>
<svg id="Layer_2" data-name="Layer 2" xmlns="http://www.w3.org/2000/svg" viewBox="0 0 224.12 187.43">
  <defs>
    <style>
      .cls-1 {
        fill: #4392f1;
      }

      .cls-2 {
        fill: #00587e;
      }

      .cls-3 {
        fill: #ddb260;
      }

      .cls-4 {
        fill: #bee7e8;
      }
    </style>
  </defs>
  <g id="Layer_1-2" data-name="Layer 1">
    <g>
      <g>
        <ellipse class="cls-4" cx="151.04" cy="124.27" rx="56.69" ry="43.41" transform="translate(-39.21 169.67) rotate(-52.87)"/>
        <path d="M184.35,149.72c-11.72,15.39-31.61,28.14-51.71,24.83-8.79-1.45-16.8-6.2-21.92-13.56-5.55-7.99-7.4-17.91-6.71-27.49,1.58-21.95,15.95-42.79,35.07-53.32,8.25-4.54,17.71-7.23,27.18-6.56,8.84.63,17.18,4.55,23.02,11.26,13.86,15.92,9.87,40.45.08,57.3-1.52,2.61-3.2,5.12-5.02,7.53-1.16,1.54,1.44,3.04,2.59,1.51,12.98-17.24,20.09-42.99,8.53-62.82-4.86-8.33-12.96-14.4-22.32-16.72-9.43-2.34-19.47-1.01-28.42,2.54-21.49,8.52-38.23,29.12-42.7,51.74-2.05,10.36-1.52,21.4,2.98,31.07,4.06,8.73,11.46,15.54,20.53,18.78,19.88,7.09,41.91-3.43,55.64-17.8,2.06-2.15,3.96-4.43,5.76-6.8,1.17-1.54-1.43-3.03-2.59-1.51Z"/>
      </g>
      <g>
        <path class="cls-3" d="M112.61,130.92c0-30.39,24.63-55.02,55.02-55.02,5.96,0,11.69.96,17.06,2.71C177.47,34.87,139.5,1.5,93.72,1.5,42.79,1.5,1.5,42.79,1.5,93.72s41.29,92.22,92.22,92.22c15.16,0,29.45-3.68,42.07-10.16-14.02-9.97-23.18-26.34-23.18-44.86Z"/>
        <path class="cls-2" d="M114.11,130.92c.04-12.66,4.53-25.09,12.78-34.72s19.35-15.9,31.64-18.04c8.59-1.5,17.47-.77,25.76,1.89,1.19.38,2.02-.79,1.85-1.85-2.49-14.93-8.64-29.2-17.84-41.22-9.11-11.91-20.99-21.64-34.57-28.04C119.7,2.34,104.12-.7,88.64.14c-15.02.82-29.76,5.25-42.69,12.94-12.53,7.44-23.26,17.82-31.14,30.07C6.73,55.7,1.8,70.14.41,85c-1.42,15.13.88,30.61,6.73,44.63,5.63,13.49,14.37,25.61,25.47,35.14s24.65,16.59,39.03,20.05c17.11,4.12,35.35,3.36,52.02-2.29,4.42-1.5,8.73-3.34,12.88-5.46,1.09-.56.85-1.98,0-2.59-10.7-7.67-18.34-19.16-21.19-32.02-.84-3.79-1.23-7.65-1.25-11.54,0-1.93-3.01-1.93-3,0,.05,14.2,5.42,27.97,15.07,38.4,2.67,2.89,5.66,5.46,8.86,7.75v-2.59c-16.17,8.26-34.58,11.47-52.6,9.27-14.29-1.74-28.08-7.04-39.95-15.16-11.65-7.97-21.37-18.69-28.2-31.04S3.35,110.4,3.02,95.83c-.33-14.59,2.84-29.21,9.33-42.29,6.3-12.69,15.57-23.91,26.92-32.41,11.47-8.58,24.86-14.38,38.97-16.83,14.83-2.57,30.27-1.36,44.53,3.45,13.78,4.64,26.34,12.68,36.4,23.17,10.09,10.51,17.58,23.44,21.65,37.43,1.02,3.5,1.82,7.06,2.41,10.65l1.85-1.85c-14.29-4.59-30.04-3.35-43.38,3.52-11.6,5.98-20.95,16.05-26.07,28.06-2.99,7.01-4.5,14.55-4.53,22.17,0,1.93,2.99,1.93,3,0Z"/>
      </g>
      <g>
        <path class="cls-1" d="M184.69,78.61c.81,4.92,1.25,9.96,1.25,15.11,0,35.77-20.38,66.76-50.15,82.06,8.99,6.39,19.97,10.16,31.84,10.16,30.39,0,55.02-24.63,55.02-55.02,0-24.43-15.93-45.13-37.96-52.31Z"/>
        <path class="cls-2" d="M183.24,79.01c2.56,15.76.96,32.03-4.7,46.96-5.04,13.29-13.31,25.3-23.81,34.86-5.93,5.4-12.57,9.97-19.7,13.65-1.08.56-.86,1.98,0,2.59,11.92,8.41,26.73,11.85,41.14,9.72,11.78-1.75,22.87-7.4,31.3-15.79,8.48-8.43,14.2-19.54,15.99-31.37,1.91-12.62-.41-25.67-6.77-36.76s-15.8-19.25-27.18-24.05c-1.46-.61-2.94-1.17-4.44-1.66-1.84-.61-2.63,2.29-.8,2.89,11.13,3.67,20.93,10.99,27.54,20.68s10.05,22.12,9.17,34.21c-.82,11.29-5.35,22.24-12.74,30.82s-17.35,14.67-28.36,17.26c-13.11,3.09-27.19,1.04-38.87-5.68-1.54-.88-3.03-1.85-4.48-2.87v2.59c13.12-6.77,24.53-16.61,33.2-28.57,8.71-12.02,14.49-26.16,16.66-40.85,1.44-9.79,1.32-19.68-.27-29.44-.31-1.9-3.2-1.09-2.89.8Z"/>
      </g>
    </g>
  </g>
</svg>