<?xml version="1.0" encoding="UTF-8"?>
<svg id="Layer_2" data-name="Layer 2" xmlns="http://www.w3.org/2000/svg" viewBox="0 0 133.51 271.5">
  <defs>
    <style>
      .cls-1 {
        fill: #5a3b00;
      }

      .cls-2 {
        fill: #b25538;
      }
    </style>
  </defs>
  <g id="Layer_1-2" data-name="Layer 1">
    <g>
      <g>
        <path class="cls-2" d="M100.79,123.75c-6.45-5.56-4.86-25.09-6.99-35.77-1.15-5.73-6.44-9.63-6.44-9.63-1.31-1.27-2.52-2.23-3.37-2.84-.25-.28,22.29,4.39,23.1,18.43.28,4.8,2.33,19.45,3.54,22.39,1.31,3.18,8.95.82,14.21,3.62,21.18,11.25-6.42,26.45-9.35,35.58-2.14,6.66-.85,18.15-2.44,25.94-2.87,14.05-11.28,28.75-25.41,37.49-15.25,9.43-59.55,14.15-58.84,33.94.29,8.14,11.79,18.87,7.05,17.79-13.13-8.1-18.87-18.03-13.12-31.29,12.03-27.77,65.02-16.9,76.01-59.12,2.64-10.14.5-19.52,3.91-29.4,1.81-5.24,12.18-18.04,12.12-20.44-.09-4.13-11.2-4.3-13.96-6.67Z"/>
        <path class="cls-1" d="M101.32,123.22c-2.18-1.91-3.09-4.94-3.72-7.67-.86-3.74-1.2-7.6-1.48-11.42-.3-3.92-.48-7.85-.92-11.76-.19-1.74-.38-3.53-.82-5.23-.51-1.98-1.5-3.84-2.73-5.47-.97-1.28-2.06-2.47-3.3-3.5-.31-.26-.61-.52-.91-.79-.53-.5-1.08-.98-1.65-1.44-.24-.19-.48-.38-.73-.57-.11-.09-.23-.17-.34-.26l-.13-.09c-.22-.19-.19-.1.1.27l-.08.58c-.11.21-.55.36-.59.37.02,0,.05.01.08,0-.23.03-.06,0,.12.02.34.06.67.14,1,.22,1.09.26,2.16.57,3.22.92,3.11,1.01,6.14,2.33,8.93,4.04,3.06,1.88,5.93,4.33,7.6,7.57.82,1.58,1.25,3.3,1.37,5.07s.31,3.44.51,5.16c.53,4.4,1.15,8.79,2,13.14.27,1.37.51,2.82,1.04,4.12.75,1.85,2.86,2.21,4.63,2.38,2.48.25,4.99.17,7.43.77s4.63,1.96,6.49,3.54c1.31,1.11,2.51,2.46,3.11,4.09.51,1.38.58,2.86.27,4.3-.71,3.31-2.87,6.2-5,8.74-2.42,2.9-5.11,5.55-7.61,8.37-2.1,2.37-4.08,4.8-4.83,7.94-1.28,5.36-1.02,11.03-1.25,16.5-.12,2.74-.29,5.5-.84,8.2s-1.25,5.17-2.13,7.68c-1.81,5.18-4.34,10.12-7.49,14.61s-7.36,8.93-12,12.35c-3.04,2.24-6.27,4-9.76,5.42-7.41,3.02-15.17,5.16-22.74,7.72-3.94,1.33-7.86,2.75-11.69,4.4-3.43,1.48-6.81,3.16-9.88,5.31-2.6,1.81-5.03,3.99-6.67,6.73s-2.25,5.78-1.74,8.82c.71,4.25,3.3,8.07,5.6,11.61.48.73.96,1.46,1.42,2.21.17.28.34.55.49.84.08.15.16.29.24.44.04.07.18.39.13.28.04.09.07.19.1.29.01.05.1.31.05.19,0,0-.04.02,0-.03.02-.02.1-.13.18-.22.04-.04.12.02-.03,0,.26.03-.08-.01-.15-.02-.04,0-.12-.03.01,0-.09-.02-.13-.03-.21-.08-.35-.2-.69-.43-1.03-.66-4.32-2.8-8.47-6.23-11.13-10.7-2.34-3.94-3.14-8.49-2.31-12.99.72-3.89,2.34-7.66,4.7-10.84,1.84-2.48,4.16-4.59,6.68-6.37,5.59-3.94,12.07-6.44,18.45-8.78,6.98-2.56,14.05-4.92,20.77-8.13s13.19-7.39,18.11-13.11c6.26-7.26,9.67-16.46,10.48-25.95.57-6.67.24-13.46,2.16-19.95,1.15-3.87,3.61-7.25,5.84-10.58,1.21-1.8,2.44-3.59,3.64-5.41.9-1.36,1.82-2.74,2.54-4.21.54-1.1.83-2.17.15-3.3-.86-1.43-2.64-2.12-4.14-2.64-1.79-.61-3.64-1.02-5.47-1.49-1.35-.35-3.14-.74-4.15-1.59-.74-.62-1.8.44-1.06,1.06,1.43,1.2,3.44,1.62,5.2,2.07,2.06.53,4.2.95,6.16,1.8.71.31,1.46.69,1.97,1.28.17.19.31.44.37.69.04.17.03.15.04.34,0,.05-.02.2.01-.04,0,.06-.02.13-.04.19-.17.56-.38.97-.71,1.58-.43.78-.9,1.54-1.38,2.29-2.57,4.03-5.43,7.88-7.88,11.99-1.15,1.93-2.06,3.86-2.67,6.03-1.01,3.6-1.39,7.34-1.6,11.06s-.26,7.43-.72,11.13c-.39,3.16-1.15,6.27-2.2,9.27-1.51,4.32-3.68,8.42-6.52,12.01-5.19,6.56-12.29,11.13-19.81,14.61s-15.37,5.91-23.05,8.88c-6.9,2.66-13.96,5.76-19.36,10.96-6.28,6.05-10.14,15.75-7.52,24.36,1.6,5.24,5.35,9.5,9.58,12.84,1.22.96,2.47,1.87,3.77,2.72.85.56,1.79,1.38,2.88,1.12,1.45-.34.84-1.98.38-2.87-.88-1.69-2.02-3.24-3.04-4.84-1.3-2.03-2.57-4.13-3.48-6.37-.79-1.93-1.25-3.91-1.08-5.99.12-1.51.59-3.03,1.29-4.38,1.58-3.03,4.24-5.35,7.03-7.23,3.48-2.34,7.32-4.14,11.2-5.72,8.58-3.49,17.53-5.96,26.27-8.99,3.64-1.26,7.29-2.59,10.71-4.38,5.07-2.65,9.64-6.49,13.46-10.72,4.17-4.61,7.58-9.9,10.11-15.57,2.4-5.38,4.18-11.13,4.73-17.01.59-6.27.08-12.68,1.17-18.9.33-1.89.79-3.45,1.81-5.02.95-1.46,2.11-2.79,3.28-4.09,2.8-3.11,5.8-6.05,8.38-9.36,2.26-2.91,4.53-6.39,4.5-10.22-.03-4.38-3.37-7.57-6.88-9.69-1.3-.78-2.63-1.45-4.1-1.83-1.39-.36-2.82-.52-4.25-.62-1.35-.1-2.7-.12-4.05-.28-.83-.1-1.84-.23-2.51-.78-.48-.4-.58-.98-.75-1.61-.23-.86-.42-1.73-.6-2.61-.47-2.34-.85-4.7-1.2-7.06s-.69-4.86-.97-7.3c-.21-1.89-.25-3.82-.57-5.69-1.38-8.22-9.79-13.05-16.93-15.7-1.36-.51-2.75-.96-4.15-1.33-.77-.21-1.6-.47-2.41-.53-.6-.04-1.18.5-.82,1.13.25.43.93.76,1.32,1.08.75.61,1.43,1.3,2.16,1.92.06.05.13.1.2.15-.09-.08-.09-.07.04.04.24.2.48.4.71.6.73.65,1.41,1.35,2.03,2.1,1.81,2.15,2.96,4.58,3.44,7.34.42,2.45.64,4.93.83,7.4.42,5.48.63,11,1.5,16.44.62,3.89,1.57,8.61,4.69,11.33.72.63,1.79-.42,1.06-1.06Z"/>
      </g>
      <g>
        <path class="cls-2" d="M32.71,150.82c6.44,5.56,4.84,25.09,6.97,35.78.48,2.39,2.11,6.39,6.44,9.63,3.21,2.4-18.92-1.54-19.72-15.58-.27-4.8-2.32-19.45-3.53-22.39-1.31-3.18-8.95-.82-14.2-3.61-21.17-11.25,6.43-26.46,9.36-35.58,2.14-6.66.86-18.16,2.45-25.95,2.88-14.06,11.3-28.76,25.43-37.5,15.25-9.44,59.55-14.17,58.85-33.96-.29-8.14-9.01-20.91-9.01-20.91,0,0,20.83,21.14,15.08,34.41-4.33,9.99-13.83,15.05-24.76,19.3-19.77,7.7-44.22,12.8-51.28,39.85-2.64,10.14-.51,19.52-3.92,29.41-1.81,5.25-12.18,18.05-12.13,20.44.09,4.13,11.2,4.29,13.96,6.67Z"/>
        <path class="cls-1" d="M32.18,151.35c1.77,1.55,2.67,3.86,3.31,6.07.85,2.97,1.25,6.05,1.55,9.12.64,6.41.65,12.91,1.74,19.27.51,2.96,1.73,5.62,3.64,7.95.65.79,1.36,1.51,2.13,2.18.39.33.8.63,1.19.95-.2-.16,0,.04.05.06-.02,0-.07-.07-.09-.17-.03-.15.02-.41.16-.57.08-.09.08-.04.18-.11-.05.03-.14.04-.2.05.31-.03-.02,0-.1,0-.11,0-.22,0-.33,0-.12,0-.24-.02-.35-.03-.07,0-.15-.02-.22-.02-.1-.01.09.02-.1-.01-.72-.11-1.44-.27-2.14-.47-1.91-.52-3.76-1.25-5.51-2.16-4.06-2.09-7.95-5.29-9.38-9.78-.69-2.19-.66-4.56-.91-6.82-.33-3-.74-6-1.2-8.98-.41-2.65-.83-5.32-1.46-7.93-.19-.78-.36-1.67-.79-2.36-.63-1.02-1.81-1.47-2.94-1.69-3.26-.62-6.63-.2-9.82-1.23-1.61-.52-3.13-1.47-4.5-2.46-1.08-.78-2.11-1.69-2.92-2.75-1.25-1.63-1.86-3.59-1.62-5.64s1.25-4.08,2.38-5.85c2.72-4.24,6.45-7.74,9.81-11.46,1.44-1.58,2.88-3.22,3.99-5.05,1.35-2.22,1.75-4.84,2.04-7.38.84-7.48.08-15.09,1.82-22.47s4.66-13.91,8.78-19.95,9.81-11.75,16.32-15.62c3.89-2.31,8.24-3.84,12.51-5.3,5.25-1.8,10.57-3.41,15.83-5.19s10.5-3.66,15.49-6.11c4.11-2.02,8.26-4.47,11.28-7.97,2.8-3.24,4.17-7.21,3.56-11.49-.44-3.05-1.59-5.98-2.87-8.77-1.2-2.64-2.59-5.19-4.09-7.68-.64-1.06-1.29-2.12-1.99-3.15l-1.18.91c2.46,2.5,4.7,5.25,6.79,8.06,3.78,5.1,7.41,10.84,8.7,17.14.56,2.75.57,5.67-.52,8.3-1.6,3.83-4.27,7.16-7.43,9.82-6.28,5.31-14.28,8.24-21.91,11.02-6.69,2.44-13.46,4.75-19.89,7.84s-12.46,6.99-17.23,12.29c-5.57,6.19-9.19,14.11-10.48,22.33-.83,5.29-.71,10.66-1.19,15.98-.38,4.17-1.13,8.43-3.18,12.12-1.66,2.99-3.63,5.81-5.55,8.64-1.64,2.42-3.43,4.83-4.73,7.45-.4.8-.75,1.6-.54,2.51.27,1.17,1.24,1.99,2.24,2.55,2.69,1.5,5.9,1.91,8.83,2.76,1,.29,2.3.66,3.03,1.28s1.8-.44,1.06-1.06c-.97-.81-2.2-1.22-3.4-1.58-1.49-.45-3.01-.79-4.52-1.19-1.41-.37-2.86-.76-4.15-1.45-.47-.25-.94-.55-1.29-.97-.24-.29-.37-.63-.38-.99,0-.19-.03.12,0,0,.02-.07.03-.15.05-.22.05-.17.15-.43.16-.45.2-.45.43-.88.68-1.31.71-1.25,1.5-2.45,2.29-3.65,1.94-2.93,3.97-5.81,5.84-8.78.8-1.27,1.59-2.56,2.27-3.91.84-1.68,1.38-3.48,1.8-5.31,1.22-5.26,1.2-10.66,1.52-16.02.3-5.05,1.14-9.97,2.92-14.72,1.37-3.66,3.24-7.13,5.57-10.26,4.29-5.74,10.13-10.05,16.42-13.37s12.98-5.7,19.64-8.11c7.57-2.73,15.39-5.42,22.07-10,3.39-2.32,6.43-5.16,8.68-8.62,1.87-2.87,3.2-5.98,3.18-9.44-.02-3.13-.89-6.22-2.08-9.1-1.28-3.08-2.91-5.99-4.75-8.77-2.64-4.01-5.66-7.81-8.95-11.31-.17-.18-.35-.37-.53-.55-.58-.59-1.67.19-1.18.91,2.42,3.54,4.54,7.36,6.28,11.27,1.99,4.46,3.73,9.65,1.67,14.36-1.7,3.88-5.2,6.68-8.72,8.86-4.53,2.8-9.5,4.83-14.49,6.65-5.38,1.96-10.84,3.66-16.29,5.43-4.8,1.56-9.63,3.14-14.21,5.26-5.91,2.74-11.14,6.97-15.48,11.8-5.06,5.64-8.97,12.27-11.59,19.37-1.23,3.34-2.25,6.82-2.79,10.34-.58,3.82-.64,7.71-.76,11.56s-.16,7.44-.94,11.05c-.24,1.11-.52,2.11-1.02,3.04-.46.85-1.01,1.64-1.6,2.41-3.02,3.92-6.74,7.25-9.87,11.07-2.8,3.42-5.87,7.75-5.21,12.42.33,2.34,1.67,4.38,3.38,5.97,2.46,2.29,5.57,4.08,8.9,4.64,1.72.29,3.47.36,5.21.47,1.24.08,2.71.08,3.84.69.76.41.89,1.04,1.1,1.84.29,1.07.51,2.15.72,3.24,1.07,5.57,1.9,11.25,2.35,16.91.09,1.19.17,2.37.46,3.53s.78,2.39,1.4,3.48c1.19,2.12,2.89,3.9,4.8,5.38,3.26,2.53,7.26,4.4,11.31,5.23.89.18,2.32.57,3.17.05.56-.34.57-1.05.16-1.51-.32-.35-.75-.6-1.1-.91-.78-.66-1.51-1.39-2.18-2.17-1.94-2.31-2.99-4.96-3.46-7.91-.49-3.09-.7-6.23-.91-9.36-.23-3.4-.44-6.81-.81-10.19-.34-3.05-.77-6.14-1.7-9.08-.7-2.2-1.71-4.45-3.47-6-.72-.63-1.79.42-1.06,1.06Z"/>
      </g>
    </g>
  </g>
</svg>