<svg xmlns="http://www.w3.org/2000/svg" version="1.1" xmlns:xlink="http://www.w3.org/1999/xlink" width="337.6" height="686.51"><svg id="SvgjsSvg1238" data-name="Layer 2" xmlns="http://www.w3.org/2000/svg" viewBox="0 0 337.6 686.51">
  <defs>
    <style>
      .cls-1 {
        fill: #5a3b00;
      }

      .cls-2 {
        fill: #b25538;
      }
    </style>
  </defs>
  <g id="SvgjsG1237" data-name="Layer 1">
    <g>
      <g>
        <path class="cls-2" d="M254.86,312.93c-16.31-14.06-12.28-63.44-17.68-90.46-2.9-14.5-16.3-24.36-16.3-24.36-3.3-3.22-6.38-5.63-8.51-7.19-.63-.72,56.35,11.09,58.4,46.6.7,12.13,5.88,49.18,8.95,56.61,3.32,8.05,22.63,2.08,35.92,9.14,53.55,28.45-16.23,66.89-23.64,89.96-5.4,16.84-2.14,45.9-6.17,65.6-7.26,35.54-28.53,72.7-64.26,94.79-38.56,23.85-150.57,35.77-148.79,85.81.73,20.58,29.8,47.71,17.82,44.98-33.2-20.47-47.71-45.59-33.19-79.12,30.42-70.21,164.42-42.74,192.21-149.48,6.67-25.63,1.26-49.36,9.88-74.35,4.57-13.26,30.79-45.63,30.66-51.67-.24-10.44-28.33-10.86-35.3-16.87Z"></path>
        <path class="cls-1" d="M256.2,311.58c-.83-.72-1.58-1.5-2.28-2.35-.08-.1-.16-.2-.24-.3-.29-.35.19.26,0,0-.18-.24-.35-.47-.52-.72-.34-.48-.66-.97-.97-1.47-.64-1.05-1.22-2.15-1.74-3.27-.13-.28-.26-.57-.39-.85-.06-.13-.12-.27-.18-.41-.1-.24.14.34.04.1-.04-.1-.08-.2-.12-.3-.25-.6-.48-1.21-.7-1.82-2.06-5.7-3.22-11.7-4.1-17.68-.06-.4-.12-.8-.17-1.19-.03-.19-.05-.37-.08-.56-.04-.29.04.31,0,.02-.02-.13-.04-.27-.05-.4-.11-.81-.21-1.63-.3-2.44-.2-1.71-.39-3.43-.56-5.14-.34-3.48-.63-6.96-.88-10.45-.51-6.94-.92-13.88-1.49-20.81-.51-6.24-1.13-12.51-2.29-18.67-1.34-7.09-4.85-13.41-9.48-18.88-1.6-1.9-3.34-3.68-5.2-5.34-.55-.49-1.1-.96-1.67-1.42-.33-.26-.7-.49-1-.78.4.39.08.02.03-.05-.1-.12-.24-.23-.35-.34-.2-.19-.4-.38-.61-.57-.45-.42-.9-.83-1.36-1.24-.81-.72-1.64-1.42-2.48-2.11s-1.62-1.29-2.45-1.92c-.31-.24-.63-.47-.94-.71-.06-.04-.12-.09-.18-.13l-.06-.04c.68.4.81.98.42,1.74-.11.88.08,1.08-.53,1.44-.92.54-.6.22-.44.19-.12.03-.68,0-.36.07.12.02.5.06.02,0s0,0,.14.03c.16.03.33.06.49.09,2.42.46,4.81,1.12,7.18,1.81,3.83,1.13,7.61,2.45,11.32,3.95.26.1.51.21.77.32.12.05.24.1.36.15.21.09.54.19.12.05.55.18,1.09.47,1.62.7,1.09.48,2.17.98,3.24,1.5,2.26,1.09,4.48,2.26,6.65,3.52s4.35,2.66,6.42,4.15c.52.38,1.04.76,1.56,1.15.05.04.1.08.15.11.2.15-.29-.23-.09-.07.11.09.23.18.34.27.26.21.52.41.78.62,1,.81,1.97,1.65,2.91,2.53,1.85,1.72,3.59,3.57,5.16,5.56.15.19.25.33.04.05.1.13.2.26.3.39.2.26.39.52.58.79.36.5.7,1,1.03,1.52.69,1.06,1.32,2.15,1.89,3.28.29.56.56,1.13.82,1.71.06.13.11.26.17.39.13.3-.03-.08-.05-.11.03.08.06.15.09.23.12.3.24.61.36.92.44,1.18.82,2.39,1.12,3.62.16.63.3,1.27.41,1.92.06.31.11.63.16.95.02.15.04.3.07.45.05.35,0-.1-.02-.12.05.06.03.25.04.32.13,1.1.18,2.21.26,3.32.37,5.16,1,10.31,1.65,15.44.82,6.48,1.74,12.95,2.79,19.39.87,5.36,1.78,10.73,3.03,16.01.38,1.6.77,3.23,1.37,4.77,1.01,2.58,2.99,4.14,5.56,5.05,2.79.99,5.87,1.19,8.8,1.38,3.52.23,7.04.35,10.54.75.21.02.42.05.62.07.12.01.24.03.36.04.31.04-.28-.04.03,0,.48.07.95.14,1.43.22.92.15,1.84.33,2.74.54s1.75.43,2.61.7c.43.13.85.28,1.28.43.2.07.39.14.59.22.11.04.22.09.33.13.04.02.47.2.27.11s.14.06.18.08c.08.04.16.07.25.11.22.1.43.2.65.31.44.22.87.45,1.31.69.83.45,1.65.91,2.46,1.4,1.47.87,2.9,1.8,4.29,2.79.32.23.63.46.95.69.14.11.29.22.43.33-.35-.27.19.16.27.22.59.47,1.16.95,1.73,1.45,1.02.91,2,1.87,2.91,2.89.43.48.84.98,1.24,1.49-.25-.32-.05-.06.07.1.08.11.17.22.25.34.18.25.36.51.53.77.63.95,1.2,1.94,1.68,2.97.06.13.12.26.18.39.04.08.19.47.07.17-.13-.33.06.15.08.22.05.13.1.26.15.39.19.5.35,1.02.5,1.53s.26,1.02.37,1.54c.05.25.09.5.13.75.01.08.07.51.02.15s.02.16.03.25c.11,1.02.14,2.04.11,3.06-.02.52-.06,1.04-.11,1.56-.01.13-.03.27-.05.4-.04.33.08-.5,0-.05-.04.27-.08.54-.13.81-.38,2.14-1.05,4.22-1.87,6.24-.01.03-.07.2-.08.2,0,0,.17-.38.08-.2-.06.13-.12.27-.18.41-.12.27-.24.54-.37.81-.25.53-.51,1.05-.77,1.57-.54,1.05-1.12,2.08-1.73,3.1-1.29,2.14-2.71,4.21-4.21,6.21-.19.25-.38.5-.57.75-.09.12-.18.23-.27.35-.05.07-.1.13-.15.2.12-.16.19-.24.03-.03-.41.52-.81,1.04-1.23,1.55-.84,1.04-1.69,2.07-2.56,3.08-3.48,4.08-7.14,7.99-10.8,11.9-3.42,3.65-6.85,7.28-10.07,11.11-2.69,3.2-5.35,6.56-7.22,10.32-1.06,2.13-1.76,4.38-2.3,6.7-.83,3.49-1.32,7.06-1.7,10.62-.83,7.97-.96,16-1.2,24-.12,4.07-.26,8.14-.51,12.2-.12,1.97-.27,3.95-.46,5.92-.09.92-.19,1.85-.3,2.77-.05.45-.11.91-.17,1.36-.04.31.04-.28,0,.03-.01.09-.02.18-.04.27-.04.27-.08.53-.11.8-1.07,7.23-3.01,14.38-5.3,21.31-2.42,7.35-5.11,13.84-8.57,20.7s-7.53,13.62-12.06,19.94c-.58.81-1.16,1.61-1.76,2.4-.29.38-.58.77-.87,1.15-.06.08-.12.15-.18.23-.02.03-.26.34-.15.19s-.12.16-.15.19c-.1.13-.2.25-.3.38-1.21,1.55-2.46,3.07-3.73,4.56-2.59,3.04-5.31,5.97-8.16,8.77s-5.93,5.59-9.08,8.18c-1.63,1.34-2.97,2.38-4.56,3.57s-3.36,2.44-5.09,3.6c-4.11,2.77-8.36,5.22-12.84,7.33-1,.47-2.01.94-3.03,1.39-.53.24-1.06.47-1.6.7-.26.11-.52.22-.79.34-.29.13.4-.17-.07.03-.14.06-.28.12-.43.18-2.26.94-4.54,1.84-6.82,2.71-4.98,1.88-10,3.63-15.05,5.32-5.39,1.81-10.81,3.55-16.22,5.29s-11.21,3.6-16.8,5.46-11.18,3.77-16.73,5.8-10.99,4.16-16.39,6.48c-4.97,2.13-9.86,4.43-14.62,7-4.35,2.35-8.6,4.93-12.59,7.87-3.7,2.72-7.21,5.72-10.25,9.17-2.75,3.12-5.15,6.59-6.83,10.42s-2.7,8.01-2.86,12.26c-.22,5.73,1.37,11.19,3.62,16.41,2.43,5.63,5.62,10.9,8.93,16.05,1.44,2.24,2.91,4.46,4.34,6.7,1.09,1.7,2.19,3.41,3.09,5.22.09.17.17.34.25.51.04.08.07.15.1.23.02.04.04.09.06.13.13.27-.09-.21-.1-.24.09.3.23.58.32.89.04.13.06.25.1.38.12.49,0-.47,0-.09,0,.09,0,.19,0,.29.02.38.14-.59.02-.18-.1.34.29-.51.08-.2-.15.22.42-.44.12-.17-.06.06.51-.34.15-.14.3-.16.49-.13.13-.08-.39.06.6-.02.13-.02-.14,0-.28,0-.42,0-.24-.01-.69-.17,0,.02-.17-.05-.38-.09-.55-.1-.07,0-.14-.07.03.02.27.13-.1-.09-.16-.13-.2-.13-.41-.25-.61-.38-.46-.29-.92-.58-1.38-.87-.87-.56-1.74-1.13-2.6-1.71-1.65-1.11-3.27-2.25-4.87-3.43-.38-.28-.77-.57-1.15-.86-.2-.15-.4-.31-.6-.46-.07-.06-.15-.11-.22-.17.25.2-.21-.16-.21-.16-.73-.57-1.46-1.15-2.17-1.74-1.44-1.18-2.85-2.41-4.22-3.67-2.57-2.37-5.01-4.89-7.25-7.57-.26-.31-.52-.63-.78-.95-.12-.15-.24-.3-.36-.45-.06-.07-.49-.63-.25-.32-.49-.64-.97-1.28-1.43-1.94-.94-1.32-1.83-2.69-2.66-4.08s-1.56-2.76-2.24-4.2c-.15-.32-.3-.64-.45-.96-.08-.18-.17-.37-.25-.55-.06-.14-.26-.61-.11-.24-.3-.72-.58-1.44-.85-2.17-1.05-2.89-1.82-5.88-2.29-8.92-.03-.2-.06-.4-.09-.6-.01-.09-.04-.37,0,.06,0-.08-.02-.15-.03-.23-.05-.4-.1-.8-.13-1.21-.08-.79-.14-1.57-.17-2.36-.08-1.61-.07-3.21,0-4.82.04-.79.1-1.59.17-2.38.04-.4.08-.8.13-1.2.02-.19.05-.38.07-.56.05-.37,0-.05,0,.02.02-.13.04-.27.06-.4.25-1.71.58-3.41.98-5.1.85-3.6,2.02-7.11,3.42-10.53.08-.21.17-.41.26-.62.12-.3-.09.22.03-.08.04-.09.08-.18.11-.27.13-.3.26-.59.39-.89.23-.52.47-1.04.72-1.56.49-1.02,1-2.02,1.55-3.02,1.05-1.93,2.21-3.81,3.46-5.62.62-.9,1.27-1.78,1.93-2.66.2-.26-.28.36,0,0,.08-.1.15-.19.23-.29.17-.22.35-.44.53-.66.34-.42.69-.84,1.04-1.26,2.82-3.32,5.95-6.36,9.3-9.13.41-.34.83-.68,1.24-1.01.21-.17.42-.33.63-.5.1-.08.19-.16.3-.23-.48.34-.04.03.08-.06.88-.68,1.78-1.34,2.69-1.98,1.83-1.3,3.7-2.53,5.6-3.71,3.93-2.43,7.99-4.62,12.14-6.65,2.14-1.05,4.3-2.05,6.47-3.02,1.11-.5,2.23-.98,3.35-1.46.27-.12.55-.23.82-.35.31-.13-.4.17.04-.02.16-.07.33-.14.49-.21.55-.23,1.1-.46,1.65-.68,4.62-1.9,9.29-3.69,13.98-5.42s9.6-3.5,14.4-5.23,9.76-3.53,14.62-5.36,9.79-3.77,14.62-5.81,9.79-4.26,14.57-6.64c4.65-2.31,9.21-4.8,13.64-7.52s8.88-5.79,13.06-9.06,8.05-6.72,11.69-10.48,7.3-8.16,10.46-12.63c3.27-4.62,6.14-9.52,8.61-14.61,2.72-5.6,4.97-11.42,6.78-17.37,2.6-8.56,4.06-17.33,4.79-26.24s.81-18.62,1.58-27.91c.39-4.73.93-9.13,1.85-13.78.83-4.17,1.86-8.39,3.41-12.36.09-.22.22-.46.28-.69-.06.24-.15.36-.02.05.06-.14.12-.27.18-.41.21-.48.44-.95.67-1.42.53-1.07,1.09-2.13,1.67-3.18,1.33-2.41,2.77-4.76,4.23-7.09,3.31-5.25,6.81-10.38,10.28-15.52,3.12-4.61,6.28-9.21,9.16-13.98,1-1.65,1.98-3.33,2.78-5.09.59-1.3,1.24-2.75,1.14-4.21-.34-4.99-5.07-7.62-9.2-9.3-5.08-2.07-10.51-3.18-15.8-4.56-2.28-.59-4.56-1.21-6.77-2.02-.22-.08-.45-.17-.67-.25-.13-.05-.27-.1-.4-.16-.25-.1-.24-.15.02.01-.38-.24-.86-.38-1.26-.59s-.77-.41-1.14-.65c-.15-.1-.3-.2-.45-.31-.04-.03-.09-.07-.13-.1-.2-.13.18.02.19.15,0-.04-.22-.18-.24-.2-.78-.67-1.92-.77-2.69,0-.68.68-.78,2.02,0,2.69,1.71,1.45,3.77,2.34,5.86,3.1,2.43.88,4.94,1.54,7.44,2.18,2.75.7,5.51,1.37,8.24,2.13,1.31.36,2.61.75,3.89,1.17.62.21,1.24.42,1.86.65.29.11.57.22.86.33.13.05.26.11.39.16.3.12-.09-.04-.12-.05.09.03.18.08.27.12,1.05.46,2.07.97,3.03,1.59.21.14.42.28.63.43.09.07.18.14.28.2.19.13-.32-.27-.15-.12.06.05.12.1.19.15.37.3.71.63,1.03.98.07.08.13.16.2.23.29.34-.17-.25-.03-.04.12.19.26.37.37.57.1.18.18.38.29.55.03.05-.17-.47-.05-.11.04.12.08.23.12.35.06.2.1.4.14.61.08.39-.02-.23-.02-.13,0,.13.02.26.03.38,0,.11,0,.21,0,.32,0,.47.12-.53.01-.1-.14.57-.32,1.12-.53,1.66-.15.38.18-.4.06-.13-.04.08-.07.16-.1.23-.09.2-.18.4-.27.59-.18.38-.37.76-.57,1.13-1.03,1.95-2.18,3.83-3.35,5.69-3.12,4.95-6.45,9.78-9.73,14.63s-6.88,10.18-10.07,15.43c-2.73,4.49-5.2,9.06-6.78,14.09-2.88,9.22-4.04,18.85-4.63,28.46s-.68,18.84-1.71,28.22c-.88,8.01-2.69,16.1-5.3,23.86-.5,1.48-1.03,2.95-1.58,4.42-.27.72-.55,1.43-.84,2.14-.13.32-.26.64-.39.95-.07.18-.15.36-.23.54.17-.41-.07.17-.12.29-1.15,2.69-2.42,5.34-3.78,7.93-2.62,4.96-5.64,9.7-9.03,14.17-.09.12-.19.24-.28.37-.05.07-.11.14-.16.21-.16.21.22-.28.06-.07-.22.27-.43.55-.65.83-.42.53-.85,1.06-1.28,1.58-.86,1.04-1.73,2.05-2.63,3.05-1.76,1.96-3.59,3.86-5.48,5.69s-3.85,3.58-5.86,5.27c-1,.84-2.02,1.66-3.05,2.47-.12.09-.23.18-.35.27-.09.07-.55.42-.12.09-.27.2-.54.41-.8.61-.52.39-1.04.78-1.57,1.17-4.19,3.08-8.57,5.9-13.07,8.5s-9.2,5.04-13.93,7.28c-2.38,1.13-4.77,2.21-7.18,3.26-.58.25-1.17.51-1.75.76-.29.13-.59.25-.88.37-.06.02-.58.25-.3.13.26-.11-.21.09-.3.13-1.21.51-2.43,1.01-3.65,1.51-4.87,1.98-9.79,3.85-14.72,5.67s-9.76,3.55-14.64,5.31-9.62,3.48-14.4,5.29-9.46,3.68-14.12,5.68c-4.38,1.88-8.71,3.89-12.94,6.09s-8.06,4.43-11.88,6.99-7.42,5.32-10.79,8.39-6.32,6.32-9.02,9.89-4.99,7.34-6.88,11.35c-2.98,6.32-5.22,13.07-6.19,20s-.7,13.25.94,19.71,4.43,12.07,8.1,17.3c4.09,5.83,9.09,10.97,14.55,15.52,3.1,2.58,6.33,5,9.66,7.27,1.72,1.17,3.47,2.31,5.23,3.41.61.38,1.17.66,1.88.76.44.06.88.14,1.33.12,1.79-.07,3.22-1.22,3.24-3.1.01-1.53-.77-3.04-1.46-4.36-2.26-4.28-5.15-8.24-7.75-12.32-1.63-2.56-3.22-5.15-4.69-7.8-.76-1.37-1.49-2.75-2.19-4.15-.34-.7-.68-1.4-1-2.1-.15-.34-.31-.68-.45-1.02-.05-.11-.28-.65-.1-.23-.08-.18-.15-.36-.23-.55-1.11-2.71-2.02-5.51-2.53-8.4-.03-.18-.06-.35-.09-.53-.01-.08-.1-.58-.04-.28.05.28-.02-.18-.03-.27-.02-.2-.04-.39-.06-.59-.06-.62-.09-1.25-.1-1.87-.02-1.03,0-2.06.08-3.09.04-.5.1-1.01.15-1.51.05-.41-.06.4-.01.07.02-.13.04-.26.06-.38.04-.25.08-.51.13-.76.17-.98.4-1.94.66-2.9s.57-1.85.92-2.76c.09-.22.17-.44.26-.67.1-.23.28-.34,0,.01.07-.09.11-.25.15-.35.2-.45.41-.9.63-1.35.89-1.81,1.95-3.53,3.12-5.17.15-.2.29-.4.44-.6.07-.09.14-.19.21-.28.04-.05.08-.11.12-.16.13-.18-.31.39-.08.11.32-.41.65-.82.98-1.22.68-.82,1.4-1.61,2.13-2.38,1.52-1.59,3.14-3.09,4.83-4.5.44-.37.89-.73,1.33-1.09.22-.18.44-.35.66-.52.39-.31-.16.12.06-.05.12-.09.24-.18.36-.28.95-.72,1.91-1.42,2.89-2.09,4.18-2.89,8.59-5.44,13.1-7.76,2.39-1.23,4.82-2.4,7.26-3.53,1.27-.58,2.54-1.15,3.82-1.7.65-.28,1.29-.56,1.94-.84.12-.05.64-.27.18-.08.15-.06.3-.12.44-.19.34-.14.68-.28,1.02-.42,5.36-2.22,10.8-4.27,16.26-6.22,5.62-2,11.27-3.9,16.93-5.76s11.24-3.64,16.87-5.45c5.37-1.73,10.73-3.47,16.07-5.3,4.93-1.68,9.84-3.43,14.68-5.34,4.42-1.74,8.8-3.6,13.04-5.74,5.2-2.62,10.09-5.79,14.78-9.24,6.66-4.89,12.87-10.37,18.54-16.38s10.53-12.17,15.01-18.85,8.18-13.3,11.48-20.37,5.99-14.12,8.19-21.46c2.15-7.17,3.81-14.47,4.61-21.91.87-8.04,1.02-16.14,1.26-24.21.12-4.07.25-8.15.49-12.21.11-1.94.25-3.88.43-5.82.09-.93.18-1.87.29-2.8.05-.44.1-.88.16-1.32.01-.09.02-.17.03-.26.04-.31-.04.29,0-.02.04-.26.07-.52.11-.78.47-3.2,1.08-6.42,2.11-9.49.13-.38.27-.76.42-1.14.16-.4-.14.31-.03.08.04-.09.08-.17.12-.26.09-.2.18-.4.28-.6.4-.82.84-1.62,1.3-2.39.51-.85,1.05-1.67,1.62-2.48.3-.43.6-.85.91-1.27.15-.21.31-.42.47-.62.07-.1.15-.19.22-.29.31-.4-.2.25.06-.08,1.42-1.82,2.91-3.57,4.43-5.3,3.43-3.89,7.02-7.64,10.55-11.43s7.31-7.94,10.69-12.14c3.21-4,6.26-8.18,8.62-12.75,2.13-4.14,3.72-8.6,4-13.27s-.95-9.15-3.35-13.06c-3.14-5.11-7.92-9.03-12.93-12.2-3.21-2.03-6.56-3.86-10.21-4.94s-7.5-1.56-11.3-1.86c-3.38-.27-6.78-.34-10.16-.68-.39-.04-.78-.08-1.17-.13-.07,0-.14-.02-.21-.03-.27-.03.35.06.08.01-.21-.03-.41-.06-.62-.09-.65-.1-1.3-.23-1.93-.39s-1.22-.36-1.82-.58c-.31-.11.4.19,0,0-.11-.06-.23-.11-.34-.17-.25-.13-.5-.27-.73-.42-.06-.04-.27-.23-.34-.24.03,0,.36.31.15.11-.04-.03-.08-.06-.12-.1-.2-.17-.38-.36-.56-.56-.04-.05-.08-.11-.13-.15-.16-.16.22.35.12.15-.05-.1-.13-.19-.19-.29-.14-.23-.23-.5-.38-.72.33.49.08.19,0-.04-.06-.16-.12-.32-.17-.48-.12-.35-.23-.71-.34-1.07-.58-1.97-1.03-3.99-1.46-6-1.21-5.74-2.16-11.55-3.05-17.35-.49-3.23-.96-6.47-1.4-9.7-.02-.18-.05-.36-.07-.54-.05-.36,0-.02,0,.04-.01-.1-.03-.21-.04-.31-.05-.41-.11-.82-.16-1.22-.1-.78-.2-1.56-.3-2.34-.19-1.5-.37-2.99-.55-4.49-.31-2.6-.59-5.19-.83-7.8-.2-2.18-.27-4.37-.54-6.54-.65-5.38-2.49-10.51-5.39-15.08s-6.38-8.24-10.38-11.55-8.47-6.23-13.09-8.71c-4.29-2.3-8.76-4.28-13.31-6.02-3.54-1.35-7.13-2.54-10.78-3.54-2-.55-4.03-1.11-6.08-1.42-.33-.05-.67-.12-1-.12-1.66-.02-2.65,2.05-1.42,3.27.31.31.74.56,1.1.83.15.11.3.22.45.34.07.05.62.48.36.27.78.61,1.55,1.23,2.31,1.86.87.73,1.72,1.48,2.56,2.24.71.65,1.38,1.37,2.14,1.95.03.02.05.04.08.06.32.24-.41-.32-.18-.14.18.15.36.29.54.44.62.51,1.23,1.04,1.83,1.58,1.93,1.76,3.73,3.66,5.38,5.68.24.3.47.6.71.89.13.17-.05-.06-.06-.08.06.08.13.17.19.25.14.19.28.38.43.57.5.68.98,1.37,1.44,2.07.97,1.48,1.85,3.03,2.62,4.62.18.37.35.75.52,1.13.05.11.1.22.14.33-.13-.3,0-.01.02.04.1.25.2.5.3.75.34.88.63,1.77.89,2.68.44,1.55.74,3.14,1.01,4.73.25,1.42.46,2.85.66,4.28.07.49-.03-.27.03.22.02.17.04.34.07.51.05.39.1.79.15,1.18.09.78.18,1.56.27,2.34.36,3.28.64,6.57.89,9.86.54,6.97.95,13.95,1.49,20.92.54,6.97,1.2,13.93,2.3,20.83.93,5.85,2.17,11.73,4.37,17.24,1.7,4.26,3.98,8.48,7.49,11.53.77.67,1.92.76,2.69,0,.69-.69.78-2.01,0-2.69Z"></path>
      </g>
      <g>
        <path class="cls-2" d="M82.72,381.37c16.3,14.05,12.25,63.44,17.63,90.47,1.2,6.04,5.34,16.15,16.28,24.36,8.11,6.08-47.83-3.89-49.86-39.4-.69-12.13-5.85-49.19-8.92-56.61-3.32-8.05-22.63-2.07-35.91-9.13-53.52-28.44,16.26-66.9,23.68-89.98,5.41-16.84,2.17-45.91,6.2-65.61,7.28-35.54,28.56-72.72,64.29-94.83,38.57-23.87,150.57-35.83,148.82-85.87-.72-20.58-22.78-52.87-22.78-52.87,0,0,52.67,53.46,38.13,87-10.96,25.27-34.97,38.05-62.6,48.81-49.99,19.47-111.82,32.36-129.66,100.75-6.69,25.64-1.28,49.37-9.91,74.36-4.58,13.26-30.81,45.64-30.68,51.69.23,10.45,28.32,10.85,35.29,16.86Z"></path>
        <path class="cls-1" d="M81.38,382.71c.5.43.98.89,1.43,1.38.22.23.43.47.64.72.11.12.21.25.31.37.06.07.11.14.17.21.22.27-.25-.35-.03-.04.85,1.16,1.62,2.35,2.3,3.61.36.66.69,1.33,1,2.01.16.34.31.69.46,1.03.17.39-.12-.31-.02-.04.04.1.08.2.12.3.08.2.16.4.24.6.62,1.59,1.16,3.2,1.63,4.84,1.04,3.56,1.79,7.2,2.41,10.86.17.99.32,1.98.47,2.97.07.48.14.95.2,1.43.03.21.06.43.09.64-.06-.41,0-.05,0,.06.02.16.04.32.06.48.27,2.05.5,4.11.71,6.17.87,8.51,1.36,17.05,1.96,25.58.55,7.9,1.15,15.83,2.46,23.64.53,3.17,1.27,6.24,2.51,9.21,1.71,4.11,4.02,7.87,6.86,11.29,1.66,2,3.49,3.84,5.46,5.53.51.43,1.02.85,1.54,1.27.31.24.61.48.92.71.13.1.26.2.39.3.01.01-.46-.39-.27-.21.13.12.27.27.41.38.16.13-.35-.51-.16-.2s-.14-.41-.11-.28c.08.31-.04-.56-.04-.35,0-.28.06-.53.22-.8-.14.23.4-.47.21-.27-.17.18.54-.37.23-.19s.55-.16.26-.11c-.08.02-.16.05-.24.07s-.17.03-.26.05c.32-.08.55-.06.16-.03-.24.02-.48.02-.72.02-.63,0-1.27-.06-1.9-.13-.08,0-.15-.02-.23-.03-.4-.05.56.08.15.02-.21-.03-.41-.06-.62-.09-.41-.07-.82-.14-1.23-.22-.94-.18-1.87-.4-2.8-.63-2.21-.56-4.4-1.25-6.54-2.04-.6-.22-1.21-.45-1.8-.68-.29-.11-.58-.23-.87-.35-.15-.06-.29-.12-.44-.18-.08-.03-.16-.07-.24-.1-.32-.13.41.18.06.03-1.25-.54-2.5-1.1-3.72-1.7-2.58-1.26-5.09-2.67-7.5-4.24-1.24-.81-2.45-1.66-3.63-2.55-.08-.06-.16-.12-.24-.18-.22-.16.37.3.05.04-.12-.1-.25-.2-.37-.29-.31-.25-.62-.5-.93-.75-.58-.48-1.16-.98-1.72-1.49-1.11-1.01-2.18-2.06-3.19-3.17-.5-.55-.98-1.1-1.45-1.67-.23-.28-.45-.56-.68-.84-.26-.32.2.27.04.05-.06-.08-.12-.16-.18-.24-.12-.16-.24-.32-.36-.48-.89-1.22-1.7-2.48-2.44-3.8-.37-.67-.73-1.35-1.06-2.05-.16-.33-.31-.66-.46-1-.04-.09-.08-.19-.12-.28.02.04.17.42.05.12-.08-.19-.15-.38-.23-.57-.58-1.47-1.05-2.98-1.4-4.52-.18-.77-.33-1.54-.45-2.32-.03-.19-.06-.38-.09-.58.09.59-.02-.15-.03-.27-.05-.42-.09-.83-.12-1.25-.21-2.65-.39-5.31-.67-7.95-.78-7.52-1.78-15.02-2.89-22.49-1.04-7.02-2.15-14.05-3.69-20.97-.46-2.08-.92-4.2-1.69-6.19-.59-1.53-1.48-2.73-2.8-3.7-1.25-.91-2.78-1.46-4.27-1.82-3.8-.92-7.79-.96-11.68-1.19-2.2-.13-4.4-.28-6.59-.54-.27-.03-.54-.07-.8-.1.34.05.03,0-.03,0-.18-.03-.36-.05-.54-.08-.56-.09-1.13-.18-1.69-.29-1.09-.21-2.18-.45-3.25-.75s-2.18-.66-3.23-1.09c-.11-.04-.22-.09-.33-.14.31.13-.05-.02-.12-.06-.25-.11-.49-.22-.73-.34-.55-.27-1.09-.56-1.63-.85-1.91-1.05-3.79-2.17-5.59-3.4-.8-.55-1.59-1.12-2.36-1.71.36.28-.25-.2-.33-.26-.15-.12-.31-.25-.46-.37-.37-.31-.74-.62-1.1-.94-1.25-1.1-2.43-2.28-3.51-3.56-.24-.28-.47-.58-.7-.86-.17-.21.28.38.04.05-.05-.06-.1-.13-.14-.19-.13-.18-.26-.35-.38-.53-.41-.58-.8-1.18-1.15-1.79s-.67-1.22-.97-1.86c-.07-.15-.13-.29-.2-.44-.18-.4.15.39-.03-.09-.13-.33-.25-.65-.37-.99-.21-.6-.38-1.21-.53-1.83-.07-.3-.14-.59-.19-.89-.03-.15-.06-.3-.08-.45-.02-.09-.1-.72-.06-.35s-.02-.15-.03-.25c-.02-.15-.03-.3-.04-.45-.03-.32-.05-.63-.06-.95-.03-.64-.02-1.27,0-1.91.01-.3.04-.6.06-.91.01-.15.03-.3.05-.45,0-.08.02-.17.03-.25.05-.4,0,.1-.02.1-.02,0,.3-1.72.33-1.87.28-1.29.65-2.56,1.1-3.8.11-.31.22-.61.34-.91.07-.17.13-.34.2-.51.03-.07.06-.14.08-.2.15-.38-.18.42-.02.05.29-.65.57-1.29.89-1.93.63-1.3,1.33-2.57,2.07-3.81,1.58-2.63,3.36-5.12,5.21-7.57.17-.22-.29.37-.03.03.05-.07.1-.13.16-.2.12-.15.24-.3.35-.45.26-.33.53-.67.8-1,.5-.62,1-1.23,1.51-1.84,1.06-1.27,2.14-2.52,3.23-3.75,4.27-4.84,8.77-9.48,13.14-14.23,3.84-4.18,7.7-8.45,10.82-13.21,1.27-1.93,2.38-3.98,3.16-6.16,1.34-3.75,1.97-7.77,2.49-11.71,1.26-9.59,1.29-19.31,1.61-28.96.16-4.94.37-9.87.8-14.8.1-1.15.22-2.3.35-3.44.07-.58.14-1.15.21-1.73.01-.09.06-.48.02-.12.02-.12.03-.24.05-.36.04-.3.08-.59.13-.89.33-2.19.76-4.37,1.24-6.53,1.97-8.84,4.73-17.51,8.23-25.87.14-.34.28-.67.53-1.25s.49-1.14.75-1.7c.48-1.08.97-2.15,1.48-3.22.99-2.09,2.03-4.16,3.11-6.2,2.24-4.21,4.67-8.32,7.3-12.3,1.32-2,2.68-3.96,4.1-5.89,1.51-2.06,2.69-3.59,4.3-5.56,3.07-3.77,6.34-7.38,9.79-10.81,7.13-7.09,14.65-13.08,23.16-18.36,4.46-2.77,9.22-5.03,14.04-7.08.14-.06.28-.12.42-.18-.57.24.07-.03.18-.08.34-.14.68-.28,1.02-.42.67-.28,1.35-.55,2.02-.82,1.43-.57,2.86-1.12,4.3-1.66,2.98-1.12,5.98-2.2,8.98-3.24,6.48-2.25,13-4.36,19.53-6.46,6.85-2.21,13.71-4.4,20.53-6.68s13.58-4.63,20.27-7.19,13.03-5.19,19.35-8.23c5.63-2.71,11.15-5.7,16.33-9.2,4.68-3.16,9.16-6.72,12.94-10.94,3.48-3.87,6.33-8.26,8.11-13.17s2.29-10.49,1.59-15.79c-1.07-8.02-4.05-15.71-7.39-23.03-3.04-6.65-6.54-13.09-10.32-19.35-1.61-2.68-3.26-5.34-5.02-7.93l-2.98,2.3c1.81,1.84,3.54,3.76,5.24,5.69,1.88,2.13,3.72,4.29,5.51,6.48,1.09,1.32,2.16,2.66,3.21,4.01.25.32.49.63.74.95.27.34-.26-.34,0,0,.07.1.15.19.22.29.15.2.3.39.45.59.56.73,1.12,1.47,1.67,2.21,4.87,6.55,9.39,13.38,13.26,20.57,1,1.85,1.95,3.73,2.85,5.64.45.96.89,1.92,1.31,2.89.09.21.19.43.28.64.04.08.22.53.03.06.04.09.07.17.11.26.21.52.43,1.03.63,1.55,1.48,3.74,2.72,7.58,3.55,11.52.2.94.37,1.88.52,2.82.04.23.07.47.11.7.01.09.06.23.04.32.08-.36-.03-.24,0,0,.06.46.11.93.16,1.4.18,1.87.25,3.75.17,5.62-.04.9-.1,1.79-.21,2.69-.01.12-.03.24-.04.36-.05.42.05-.36.01-.08-.03.22-.06.44-.1.66-.07.44-.15.88-.24,1.31-.36,1.78-.87,3.52-1.54,5.21-.04.11-.33.76-.09.22-.13.29-.25.58-.38.87-.29.64-.58,1.27-.89,1.89-.58,1.18-1.19,2.35-1.83,3.49-1.29,2.29-2.73,4.51-4.29,6.63-.17.23-.34.47-.52.7-.1.14-.21.28-.32.41.2-.26.02-.02-.02.03-.43.54-.86,1.09-1.3,1.62-.81.98-1.65,1.93-2.51,2.86-1.77,1.91-3.64,3.71-5.59,5.43-.96.84-1.94,1.67-2.94,2.47-.23.18-.46.36-.69.54-.14.11-.28.22-.42.32.31-.24-.15.11-.17.13-.51.39-1.03.78-1.55,1.16-2.16,1.58-4.39,3.07-6.66,4.48-4.66,2.88-9.51,5.44-14.45,7.79-9.13,4.33-18.41,7.87-28.06,11.4-8.36,3.07-16.77,6.02-25.1,9.16s-17.04,6.64-25.31,10.54-16.01,8.12-23.43,13.16-14.58,10.96-20.75,17.66c-6.5,7.05-12.03,14.98-16.37,23.53-5.17,10.2-8.9,21.27-10.81,32.55-2.29,13.53-1.99,27.26-3.16,40.89-.58,6.75-1.56,13.34-3.4,19.96-.46,1.65-.96,3.29-1.53,4.91-.1.29-.21.58-.32.86-.06.16-.13.31-.19.47-.02.06-.15.36-.01.04.15-.34-.03.06-.06.13-.66,1.51-1.41,2.97-2.2,4.42-4.08,7.49-8.99,14.54-13.77,21.6-2.39,3.53-4.78,7.05-7.11,10.61-1.82,2.78-3.63,5.59-5.17,8.54-1.11,2.12-2.17,4.28-1.76,6.72.53,3.15,3.25,5.39,5.91,6.83,3.39,1.83,7.16,2.94,10.87,3.93s7.76,1.91,11.59,3.03c.83.24,1.65.5,2.47.78.37.13.75.26,1.11.4.19.07.37.14.56.22.17.07.71.39.18.07.57.35,1.24.56,1.83.89.28.16.55.32.82.5.11.08.22.16.34.24.27.18-.31-.35-.13-.1.04.05.13.11.18.15.78.67,1.92.77,2.69,0,.68-.68.78-2.02,0-2.69-2.5-2.13-5.8-3.17-8.9-4.09-3.83-1.13-7.73-1.99-11.58-3.03-1.93-.52-3.85-1.07-5.74-1.73-.4-.14-.79-.28-1.18-.43-.23-.09-.46-.18-.69-.27-.15-.06-.88-.33-.32-.13-.78-.28-1.53-.69-2.25-1.09s-1.3-.83-1.96-1.25c-.21-.13.38.32.12.09-.07-.06-.15-.12-.22-.18-.12-.1-.24-.2-.35-.31-.26-.24-.52-.5-.75-.78-.04-.04-.07-.09-.11-.13-.23-.26.28.4.09.11-.08-.12-.16-.23-.24-.35-.09-.14-.17-.29-.25-.43-.03-.05-.05-.1-.08-.15-.16-.29.04-.27.02.08.01-.24-.22-.63-.27-.87-.03-.13-.04-.28-.08-.41.19.63.02.14.01-.09,0-.15.04-.33.02-.48.05.57-.08.49-.02.24.02-.1.04-.19.06-.29.11-.44.27-.87.44-1.29.17-.44-.12.27-.03.07.05-.11.1-.22.15-.33.13-.29.27-.57.41-.85.29-.59.6-1.17.92-1.74,1.7-3.07,3.63-6.02,5.56-8.95,4.88-7.39,9.98-14.63,14.74-22.1,2.1-3.29,4.15-6.63,5.95-10.1,2.14-4.13,3.54-8.51,4.64-13.03,3.25-13.31,3.27-27.05,4.04-40.65.39-6.87.99-13.57,2.31-20.25,1.15-5.85,2.82-11.61,4.86-17.2.45-1.22.91-2.44,1.4-3.65.11-.27.22-.54.33-.81.07-.16.13-.32.2-.48.22-.52-.09.2.05-.11.26-.61.53-1.22.8-1.83,1.03-2.29,2.13-4.55,3.31-6.77,2.26-4.24,4.82-8.32,7.66-12.19.33-.45.66-.89.99-1.33.09-.13.19-.25.29-.38,0,0,.31-.41.14-.18s.14-.18.14-.18c.13-.16.26-.33.39-.49.71-.9,1.43-1.78,2.17-2.65,1.46-1.73,2.97-3.4,4.54-5.03,3.13-3.24,6.46-6.29,9.96-9.13.43-.35.86-.7,1.3-1.04.2-.16.39-.31.59-.47.12-.09.24-.19.36-.28-.38.29.15-.11.21-.16.88-.67,1.76-1.33,2.66-1.98,1.79-1.3,3.61-2.55,5.46-3.75,3.75-2.45,7.61-4.72,11.55-6.84s8-4.12,12.09-5.99c2.07-.95,4.16-1.87,6.26-2.77.23-.1.47-.2.7-.3.12-.05.8-.34.39-.16.56-.24,1.12-.47,1.69-.7,1.03-.43,2.07-.85,3.1-1.27,8.34-3.37,16.81-6.43,25.27-9.48s17.39-6.26,25.95-9.74c10.36-4.22,20.6-8.93,29.96-15.11,8.82-5.83,16.77-12.98,22.74-21.76,2.8-4.12,5.33-8.65,6.95-13.38,1.21-3.53,1.75-7.3,1.77-11.03.06-7.95-2.12-15.82-5.11-23.13-3.21-7.85-7.37-15.27-12.02-22.35-4.17-6.34-8.73-12.42-13.54-18.28-2.96-3.6-6.02-7.13-9.21-10.53-.44-.47-.88-.94-1.34-1.4-.66-.67-1.77-.73-2.49-.15s-1.03,1.66-.49,2.45c1.9,2.78,3.66,5.65,5.39,8.54,3.83,6.4,7.38,12.97,10.42,19.78.21.47.42.94.63,1.42.1.22.19.45.29.68.04.1.09.2.13.3-.16-.38.03.07.06.15.4.95.78,1.91,1.15,2.87.73,1.89,1.41,3.8,2.02,5.73.57,1.82,1.08,3.67,1.49,5.53.2.9.38,1.8.53,2.71.03.21.07.42.1.63.01.09.03.19.04.28.07.46-.04-.32,0-.02.05.43.11.87.15,1.3.14,1.44.18,2.88.13,4.32-.02.63-.06,1.25-.12,1.87-.03.29-.06.58-.1.87-.06.5.06-.4,0,.03-.03.18-.05.35-.08.53-.38,2.38-1.05,4.7-1.96,6.94-.03.07-.07.15-.09.22,0-.01.2-.46.08-.19-.06.13-.11.26-.17.39-.12.28-.25.55-.38.83-.26.55-.54,1.09-.83,1.63-.59,1.09-1.24,2.14-1.94,3.16-.36.52-.72,1.03-1.1,1.53-.08.1-.15.23-.24.32.43-.38.04-.05-.07.09-.21.26-.42.53-.64.79-.82.99-1.69,1.95-2.58,2.88-1.9,1.96-3.95,3.77-6.09,5.47-.13.1-.26.21-.4.31-.07.06-.15.12-.22.17.03-.02.37-.28.12-.09-.3.23-.6.46-.91.69-.59.44-1.18.86-1.77,1.28-1.21.85-2.44,1.67-3.68,2.46-5.39,3.44-11.09,6.39-16.9,9.07-1.53.71-3.07,1.39-4.62,2.06-.38.16-.75.32-1.13.49-.21.09-.42.18-.63.27-.08.04-.17.07-.25.11.47-.2.03-.01-.05.02-.81.34-1.61.67-2.42,1-3.27,1.34-6.57,2.61-9.89,3.84-6.79,2.52-13.65,4.86-20.52,7.12s-13.68,4.43-20.51,6.64c-6.45,2.09-12.9,4.21-19.29,6.48-5.83,2.08-11.62,4.28-17.27,6.81s-10.77,5.38-15.78,8.78c-8.33,5.65-16.03,12.24-22.91,19.59s-12.64,14.98-17.78,23.3-9.22,16.69-12.66,25.57c-3.26,8.41-5.9,17.16-7.52,26.03-1.75,9.6-1.96,19.43-2.25,29.16-.15,4.94-.28,9.88-.58,14.81-.14,2.37-.32,4.73-.57,7.09-.06.54-.12,1.07-.18,1.61-.03.29-.07.59-.11.88-.01.12-.03.23-.05.35-.08.58.05-.38-.03.19-.15,1.07-.32,2.15-.51,3.22-.35,1.97-.79,3.93-1.36,5.85-.18.62-.38,1.24-.61,1.85-.04.11-.09.22-.13.33-.02.05-.04.1-.06.15-.12.3.18-.41.08-.19-.11.24-.21.48-.32.71-1,2.12-2.3,4.1-3.68,6-.18.25-.37.5-.55.74-.09.13-.19.25-.28.37-.05.07-.11.14-.16.21-.21.28.27-.34.04-.05-.42.54-.85,1.08-1.28,1.61-.9,1.1-1.82,2.18-2.75,3.25-2.03,2.32-4.12,4.58-6.22,6.83-4.47,4.79-8.99,9.53-13.23,14.53s-7.98,9.87-10.88,15.48c-2.54,4.91-4.39,10.43-3.99,16.02.43,6.11,3.42,11.51,7.69,15.81,2.78,2.8,6.01,5.16,9.37,7.21,2.02,1.23,4.09,2.41,6.27,3.32s4.3,1.51,6.54,1.95c4.46.89,9.02,1.11,13.55,1.37,1.94.11,3.87.24,5.8.47.47.06-.31-.05-.01,0,.11.02.23.03.35.05.2.03.41.06.61.1.41.07.82.15,1.23.24.75.17,1.47.41,2.19.67.31.11-.12-.06-.14-.06.09.01.22.1.3.14.13.06.26.13.39.2.16.09.84.38.88.56,0-.03-.34-.29-.15-.11.06.06.13.11.19.16.11.1.22.2.32.31s.19.23.29.33c.17.16-.27-.41-.09-.11.05.09.11.16.17.25.08.13.15.26.22.39.11.21.18.61.02.02.05.18.14.37.21.55.15.41.28.82.4,1.23.74,2.47,1.27,5.01,1.78,7.54,1.47,7.32,2.61,14.72,3.66,22.11.14.99.28,1.98.41,2.97.03.23.06.47.09.7.01.11.06.47,0,.04.01.1.03.21.04.31.07.51.14,1.02.2,1.53.25,1.87.48,3.75.71,5.63.38,3.18.74,6.36,1.02,9.55.26,2.95.35,5.91.91,8.82.61,3.17,1.7,6.23,3.15,9.11,2.77,5.51,6.97,10.25,11.74,14.12s9.74,6.81,15.16,9.25c4.45,2,9.07,3.68,13.84,4.73,1.71.38,3.45.69,5.19.81,1.16.08,2.43.08,3.49-.46,1.6-.82,1.55-2.78.43-3.97-.14-.15-.29-.28-.45-.4-.99-.79-1.99-1.55-3-2.43-1.9-1.67-3.67-3.5-5.27-5.47-.18-.22-.36-.44-.53-.66.17.22-.02-.02-.04-.06-.09-.12-.19-.25-.28-.37-.34-.46-.67-.93-1-1.4-.61-.9-1.19-1.82-1.73-2.76-.5-.88-.97-1.77-1.41-2.68-.19-.41-.38-.82-.56-1.23-.04-.09-.08-.18-.12-.27.17.4.04.09,0-.01-.1-.24-.2-.48-.29-.72-1.17-3.02-1.8-6.14-2.31-9.32-.14-.87-.27-1.75-.39-2.62,0-.02-.07-.5-.03-.18s-.02-.16-.02-.18c-.03-.2-.05-.39-.08-.59-.06-.49-.12-.99-.18-1.48-.23-1.95-.43-3.9-.61-5.85-.38-4.12-.68-8.25-.97-12.38-.59-8.55-1.1-17.12-2.03-25.65-.85-7.78-1.94-15.65-4.28-23.14-1.76-5.62-4.32-11.47-8.86-15.41-.77-.67-1.93-.76-2.69,0-.69.69-.78,2.01,0,2.69Z"></path>
      </g>
    </g>
  </g>
</svg><style>@media (prefers-color-scheme: light) { :root { filter: none; } }
@media (prefers-color-scheme: dark) { :root { filter: none; } }
</style></svg>